<svg width="70" height="70" viewBox="0 0 50 70" fill="none" xmlns="http://www.w3.org/2000/svg">
<path d="M2.75213 59V22.6364H17.7734C20.496 22.6364 22.8456 23.1276 24.8224 24.1101C26.8111 25.0807 28.344 26.4775 29.4212 28.3004C30.4983 30.1115 31.0369 32.2599 31.0369 34.7457C31.0369 37.267 30.4865 39.4096 29.3857 41.1733C28.2848 42.9252 26.7223 44.2628 24.6982 45.1861C22.674 46.0975 20.277 46.5533 17.5071 46.5533H8.00781V39.6286H15.8736C17.1993 39.6286 18.3061 39.4569 19.1939 39.1136C20.0935 38.7585 20.7741 38.2259 21.2358 37.5156C21.6974 36.7936 21.9283 35.8703 21.9283 34.7457C21.9283 33.6212 21.6974 32.692 21.2358 31.9581C20.7741 31.2124 20.0935 30.656 19.1939 30.2891C18.2943 29.9103 17.1875 29.7209 15.8736 29.7209H11.5412V59H2.75213ZM23.2244 42.3807L32.2798 59H22.6918L13.8139 42.3807H23.2244Z" fill="#000"/>
<path d="M7.75213 54V17.6364H22.7734C25.496 17.6364 27.8456 18.1276 29.8224 19.1101C31.8111 20.0807 33.344 21.4775 34.4212 23.3004C35.4983 25.1115 36.0369 27.2599 36.0369 29.7457C36.0369 32.267 35.4865 34.4096 34.3857 36.1733C33.2848 37.9252 31.7223 39.2628 29.6982 40.1861C27.674 41.0975 25.277 41.5533 22.5071 41.5533H13.0078V34.6286H20.8736C22.1993 34.6286 23.3061 34.4569 24.1939 34.1136C25.0935 33.7585 25.7741 33.2259 26.2358 32.5156C26.6974 31.7936 26.9283 30.8703 26.9283 29.7457C26.9283 28.6212 26.6974 27.692 26.2358 26.9581C25.7741 26.2124 25.0935 25.656 24.1939 25.2891C23.2943 24.9103 22.1875 24.7209 20.8736 24.7209H16.5412V54H7.75213ZM28.2244 37.3807L37.2798 54H27.6918L18.8139 37.3807H28.2244Z" fill="#495380"/>
<path d="M12.7521 49V12.6364H27.7734C30.496 12.6364 32.8456 13.1276 34.8224 14.1101C36.8111 15.0807 38.344 16.4775 39.4212 18.3004C40.4983 20.1115 41.0369 22.2599 41.0369 24.7457C41.0369 27.267 40.4865 29.4096 39.3857 31.1733C38.2848 32.9252 36.7223 34.2628 34.6982 35.1861C32.674 36.0975 30.277 36.5533 27.5071 36.5533H18.0078V29.6286H25.8736C27.1993 29.6286 28.3061 29.4569 29.1939 29.1136C30.0935 28.7585 30.7741 28.2259 31.2358 27.5156C31.6974 26.7936 31.9283 25.8703 31.9283 24.7457C31.9283 23.6212 31.6974 22.692 31.2358 21.9581C30.7741 21.2124 30.0935 20.656 29.1939 20.2891C28.2943 19.9103 27.1875 19.7209 25.8736 19.7209H21.5412V49H12.7521ZM33.2244 32.3807L42.2798 49H32.6918L23.8139 32.3807H33.2244Z" fill="#FAA275"/>
</svg>
