<svg width="1070" height="1070" viewBox="0 0 1070 1070" fill="none" xmlns="http://www.w3.org/2000/svg">
<circle cx="535" cy="535" r="522.5" fill="#1F1A38" stroke="#FAA275" stroke-width="25"/>
<line x1="111.266" y1="508.698" x2="372.896" y2="770.327" stroke="#FAA275" stroke-width="80"/>
<line x1="634.716" y1="819.914" x2="952.914" y2="501.716" stroke="#FAA275" stroke-width="80"/>
<line x1="372.716" y1="714.716" x2="422.213" y2="665.218" stroke="#FAA275" stroke-width="80"/>
<line x1="361.284" y1="487.716" x2="608.772" y2="735.203" stroke="#FAA275" stroke-width="80"/>
<line x1="411.683" y1="493.749" x2="595.53" y2="309.901" stroke="#FAA275" stroke-width="80"/>
<line x1="198.683" y1="477.749" x2="488.596" y2="187.835" stroke="#FAA275" stroke-width="80"/>
<mask id="path-8-inside-1_106_61" fill="white">
<path d="M620.663 342.31C631.946 331.028 640.895 317.634 647.001 302.892C653.107 288.151 656.25 272.352 656.25 256.396C656.25 240.441 653.107 224.641 647.001 209.9C640.895 195.159 631.946 181.765 620.663 170.483C609.381 159.201 595.987 150.251 581.246 144.145C566.505 138.039 550.706 134.896 534.75 134.896C518.794 134.896 502.995 138.039 488.254 144.145C473.513 150.251 460.119 159.201 448.836 170.483L534.75 256.396L620.663 342.31Z"/>
</mask>
<path d="M620.663 342.31C631.946 331.028 640.895 317.634 647.001 302.892C653.107 288.151 656.25 272.352 656.25 256.396C656.25 240.441 653.107 224.641 647.001 209.9C640.895 195.159 631.946 181.765 620.663 170.483C609.381 159.201 595.987 150.251 581.246 144.145C566.505 138.039 550.706 134.896 534.75 134.896C518.794 134.896 502.995 138.039 488.254 144.145C473.513 150.251 460.119 159.201 448.836 170.483L534.75 256.396L620.663 342.31Z" stroke="#FAA275" stroke-width="160" mask="url(#path-8-inside-1_106_61)"/>
<circle cx="538.75" cy="252.75" r="40.75" fill="#1F1A38"/>
<line x1="540.057" y1="493.489" x2="695.621" y2="649.052" stroke="#FAA275" stroke-width="80"/>
</svg>
